<svg data-v-fde0c5aa="" xmlns="http://www.w3.org/2000/svg" viewBox="0 0 300 300" class="iconLeft"><!----><defs data-v-fde0c5aa=""><!----></defs><rect data-v-fde0c5aa="" fill="transparent" x="0" y="0" width="300px" height="300px" class="logo-background-square"></rect><defs data-v-fde0c5aa=""><!----></defs><g data-v-fde0c5aa="" id="9b9aa20b-d5bc-4230-9086-82ec6e9ca96c" fill="#000000" transform="matrix(2.9046164148088653,0,0,2.9046164148088653,90.02185057710173,129.92909997810827)"><path d="M2.24 11.91Q2.24 12.10 2.13 12.21Q2.02 12.33 1.82 12.33L1.82 12.33Q1.64 12.33 1.52 12.21Q1.40 12.10 1.40 11.91L1.40 11.91L1.40 1.82Q1.40 1.62 1.52 1.51Q1.64 1.40 1.82 1.40L1.82 1.40L4.62 1.40Q5.63 1.40 6.43 1.85Q7.22 2.30 7.67 3.09Q8.12 3.89 8.12 4.90L8.12 4.90Q8.12 5.92 7.67 6.72Q7.22 7.52 6.43 7.97Q5.63 8.41 4.62 8.41L4.62 8.41L2.24 8.41L2.24 11.91ZM4.62 7.57Q5.39 7.57 5.99 7.23Q6.59 6.89 6.94 6.28Q7.28 5.67 7.28 4.90L7.28 4.90Q7.28 4.13 6.94 3.53Q6.59 2.93 5.99 2.58Q5.39 2.24 4.62 2.24L4.62 2.24L2.24 2.24L2.24 7.57L4.62 7.57ZM12.63 4.61Q13.65 4.61 14.46 5.09Q15.26 5.57 15.71 6.43Q16.16 7.28 16.16 8.37L16.16 8.37Q16.16 8.55 16.04 8.66Q15.93 8.76 15.75 8.76L15.75 8.76L9.88 8.76Q9.93 9.59 10.32 10.24Q10.71 10.89 11.37 11.26Q12.03 11.62 12.84 11.62L12.84 11.62Q13.38 11.62 13.94 11.43Q14.49 11.24 14.81 10.93L14.81 10.93Q14.95 10.82 15.11 10.82L15.11 10.82Q15.26 10.82 15.36 10.91L15.36 10.91Q15.51 11.03 15.51 11.20L15.51 11.20Q15.51 11.34 15.39 11.47L15.39 11.47Q14.94 11.87 14.22 12.14Q13.50 12.40 12.84 12.40L12.84 12.40Q11.73 12.40 10.87 11.91Q10.01 11.41 9.52 10.52Q9.03 9.63 9.03 8.51L9.03 8.51Q9.03 7.38 9.49 6.49Q9.94 5.60 10.76 5.10Q11.58 4.61 12.63 4.61L12.63 4.61ZM12.63 5.39Q11.54 5.39 10.79 6.12Q10.04 6.85 9.90 8.04L9.90 8.04L15.34 8.04Q15.25 6.85 14.50 6.12Q13.76 5.39 12.63 5.39L12.63 5.39ZM21.22 4.59Q22.29 4.59 22.29 5.05L22.29 5.05Q22.29 5.12 22.27 5.17L22.27 5.17Q22.23 5.32 22.14 5.38Q22.05 5.45 21.90 5.45L21.90 5.45Q21.77 5.45 21.57 5.42Q21.36 5.39 21.22 5.39L21.22 5.39Q20.52 5.39 19.98 5.68Q19.43 5.98 19.12 6.50Q18.82 7.01 18.82 7.66L18.82 7.66L18.82 11.91Q18.82 12.10 18.70 12.21Q18.59 12.33 18.40 12.33L18.40 12.33Q18.21 12.33 18.10 12.21Q17.98 12.10 17.98 11.91L17.98 11.91L17.98 5.10Q17.98 4.90 18.10 4.79Q18.21 4.68 18.40 4.68L18.40 4.68Q18.59 4.68 18.70 4.79Q18.82 4.90 18.82 5.10L18.82 5.10L18.82 5.96Q19.22 5.32 19.85 4.96Q20.48 4.59 21.22 4.59L21.22 4.59ZM26.73 4.61Q27.62 4.61 28.36 4.96Q29.11 5.31 29.65 5.99L29.65 5.99Q29.75 6.13 29.75 6.23L29.75 6.23Q29.75 6.43 29.55 6.54L29.55 6.54Q29.46 6.62 29.33 6.62L29.33 6.62Q29.13 6.62 29.01 6.45L29.01 6.45Q28.11 5.39 26.73 5.39L26.73 5.39Q25.91 5.39 25.28 5.79Q24.65 6.19 24.31 6.90Q23.97 7.62 23.97 8.51L23.97 8.51Q23.97 9.39 24.35 10.11Q24.72 10.82 25.40 11.23Q26.07 11.63 26.94 11.63L26.94 11.63Q28.17 11.63 28.91 10.95L28.91 10.95Q29.04 10.82 29.20 10.82L29.20 10.82Q29.36 10.82 29.46 10.92L29.46 10.92Q29.60 11.05 29.60 11.23L29.60 11.23Q29.60 11.38 29.48 11.48L29.48 11.48Q28.99 11.93 28.34 12.17Q27.68 12.42 26.94 12.42L26.94 12.42Q25.86 12.42 24.99 11.91Q24.12 11.40 23.63 10.50Q23.13 9.60 23.13 8.51L23.13 8.51Q23.13 7.41 23.59 6.52Q24.05 5.63 24.88 5.12Q25.70 4.61 26.73 4.61L26.73 4.61ZM35.03 4.61Q36.05 4.61 36.86 5.09Q37.66 5.57 38.11 6.43Q38.56 7.28 38.56 8.37L38.56 8.37Q38.56 8.55 38.44 8.66Q38.33 8.76 38.15 8.76L38.15 8.76L32.28 8.76Q32.33 9.59 32.72 10.24Q33.11 10.89 33.77 11.26Q34.43 11.62 35.24 11.62L35.24 11.62Q35.78 11.62 36.34 11.43Q36.89 11.24 37.21 10.93L37.21 10.93Q37.35 10.82 37.51 10.82L37.51 10.82Q37.66 10.82 37.76 10.91L37.76 10.91Q37.91 11.03 37.91 11.20L37.91 11.20Q37.91 11.34 37.79 11.47L37.79 11.47Q37.34 11.87 36.62 12.14Q35.90 12.40 35.24 12.40L35.24 12.40Q34.13 12.40 33.27 11.91Q32.41 11.41 31.92 10.52Q31.43 9.63 31.43 8.51L31.43 8.51Q31.43 7.38 31.89 6.49Q32.34 5.60 33.16 5.10Q33.98 4.61 35.03 4.61L35.03 4.61ZM35.03 5.39Q33.94 5.39 33.19 6.12Q32.44 6.85 32.30 8.04L32.30 8.04L37.74 8.04Q37.65 6.85 36.90 6.12Q36.16 5.39 35.03 5.39L35.03 5.39ZM40.66 5.10Q40.66 4.90 40.77 4.79Q40.89 4.68 41.08 4.68L41.08 4.68Q41.27 4.68 41.38 4.79Q41.50 4.90 41.50 5.10L41.50 5.10L41.50 11.91Q41.50 12.10 41.38 12.21Q41.27 12.33 41.08 12.33L41.08 12.33Q40.89 12.33 40.77 12.21Q40.66 12.10 40.66 11.91L40.66 11.91L40.66 5.10ZM41.08 1.76Q41.34 1.76 41.53 1.93Q41.72 2.10 41.72 2.41L41.72 2.41Q41.72 2.69 41.53 2.88Q41.34 3.07 41.06 3.07L41.06 3.07Q40.78 3.07 40.60 2.88Q40.42 2.69 40.42 2.41L40.42 2.41Q40.42 2.10 40.61 1.93Q40.81 1.76 41.08 1.76L41.08 1.76ZM50.32 4.69Q50.55 4.80 50.55 5.05L50.55 5.05Q50.55 5.15 50.53 5.21L50.53 5.21L47.38 12.05Q47.24 12.35 46.93 12.35L46.93 12.35Q46.80 12.35 46.70 12.27Q46.59 12.19 46.54 12.05L46.54 12.05L43.34 5.22Q43.32 5.17 43.32 5.07L43.32 5.07Q43.32 4.82 43.55 4.70L43.55 4.70Q43.64 4.66 43.72 4.66L43.72 4.66Q43.96 4.66 44.07 4.90L44.07 4.90L46.94 11.12L49.77 4.89Q49.88 4.65 50.13 4.65L50.13 4.65Q50.23 4.65 50.32 4.69L50.32 4.69ZM54.99 4.61Q56.01 4.61 56.82 5.09Q57.62 5.57 58.07 6.43Q58.52 7.28 58.52 8.37L58.52 8.37Q58.52 8.55 58.41 8.66Q58.30 8.76 58.11 8.76L58.11 8.76L52.25 8.76Q52.29 9.59 52.68 10.24Q53.07 10.89 53.73 11.26Q54.39 11.62 55.20 11.62L55.20 11.62Q55.75 11.62 56.30 11.43Q56.85 11.24 57.18 10.93L57.18 10.93Q57.32 10.82 57.47 10.82L57.47 10.82Q57.62 10.82 57.72 10.91L57.72 10.91Q57.88 11.03 57.88 11.20L57.88 11.20Q57.88 11.34 57.75 11.47L57.75 11.47Q57.30 11.87 56.58 12.14Q55.86 12.40 55.20 12.40L55.20 12.40Q54.10 12.40 53.23 11.91Q52.37 11.41 51.88 10.52Q51.39 9.63 51.39 8.51L51.39 8.51Q51.39 7.38 51.85 6.49Q52.30 5.60 53.12 5.10Q53.94 4.61 54.99 4.61L54.99 4.61ZM54.99 5.39Q53.90 5.39 53.15 6.12Q52.40 6.85 52.26 8.04L52.26 8.04L57.71 8.04Q57.61 6.85 56.87 6.12Q56.13 5.39 54.99 5.39L54.99 5.39Z"></path></g><defs data-v-fde0c5aa=""><linearGradient data-v-fde0c5aa="" gradientTransform="rotate(25)" id="0df8dc0e-dde0-4432-8daa-094e231d3a7e" x1="0%" y1="0%" x2="100%" y2="0%"><stop data-v-fde0c5aa="" offset="0%" stop-color="#08C7D6" stop-opacity="1"></stop><stop data-v-fde0c5aa="" offset="100%" stop-color="#02023E" stop-opacity="1"></stop></linearGradient></defs><g data-v-fde0c5aa="" id="732dfe99-b42a-409e-b643-b0f45165e836" stroke="none" fill="url(#0df8dc0e-dde0-4432-8daa-094e231d3a7e)" transform="matrix(0.923333045686624,0,0,0.923333045686624,13.223341675087905,101.98668690764961)"><path d="M53.1 39.4h-6.4v10h6.4c7.5.1 7.1-10 0-10z"></path><path d="M66.4 26H36.1S29 26 29 33.1v37.8s0 7.1 7.1 7.1h30.3s7.1 0 7.1-7.1V33.1s0-7.1-7.1-7.1zM53.1 55.8h-6.3v14.7h-6.4V33.1h13.3c7.1 0 11.6 4.5 11.6 11.4-.1 8.9-6.1 11.3-12.2 11.3z"></path></g><!----></svg>